<mxfile host="app.diagrams.net" modified="2023-10-02T18:25:34.359Z" agent="Mozilla/5.0 (Windows NT 10.0; Win64; x64) AppleWebKit/537.36 (KHTML, like Gecko) Chrome/114.0.0.0 Safari/537.36" etag="VJiPS8VYYAnkvzVWzpsW" version="22.0.0" type="device">
  <diagram name="Página-1" id="LzWbx9pTt6WY4wY0gOwH">
    <mxGraphModel dx="840" dy="786" grid="1" gridSize="10" guides="1" tooltips="1" connect="1" arrows="1" fold="1" page="1" pageScale="1" pageWidth="827" pageHeight="1169" math="0" shadow="0">
      <root>
        <mxCell id="0" />
        <mxCell id="1" parent="0" />
        <mxCell id="9zpTmdCMwln6hK2Ll3PY-1" value="PELICULA" style="swimlane;childLayout=stackLayout;horizontal=1;startSize=50;horizontalStack=0;rounded=1;fontSize=14;fontStyle=0;strokeWidth=2;resizeParent=0;resizeLast=1;shadow=0;dashed=0;align=center;arcSize=4;whiteSpace=wrap;html=1;" vertex="1" parent="1">
          <mxGeometry x="40" y="40" width="160" height="180" as="geometry" />
        </mxCell>
        <mxCell id="9zpTmdCMwln6hK2Ll3PY-2" value="&lt;u&gt;Titulo&lt;br&gt;&lt;/u&gt;año&lt;br&gt;nacionalidad&lt;br&gt;idioma&lt;br&gt;blanco/negro o color&lt;br&gt;N restricción de edad&lt;br&gt;resumen&lt;br&gt;observaciones propias" style="align=left;strokeColor=none;fillColor=none;spacingLeft=4;fontSize=12;verticalAlign=top;resizable=0;rotatable=0;part=1;html=1;" vertex="1" parent="9zpTmdCMwln6hK2Ll3PY-1">
          <mxGeometry y="50" width="160" height="130" as="geometry" />
        </mxCell>
        <mxCell id="9zpTmdCMwln6hK2Ll3PY-3" value="DIRECTOR" style="swimlane;childLayout=stackLayout;horizontal=1;startSize=50;horizontalStack=0;rounded=1;fontSize=14;fontStyle=0;strokeWidth=2;resizeParent=0;resizeLast=1;shadow=0;dashed=0;align=center;arcSize=4;whiteSpace=wrap;html=1;" vertex="1" parent="1">
          <mxGeometry x="220" y="40" width="160" height="140" as="geometry" />
        </mxCell>
        <mxCell id="9zpTmdCMwln6hK2Ll3PY-4" value="&lt;u&gt;Nombre&lt;/u&gt;&lt;br&gt;ape1&lt;br&gt;N ape2&lt;br&gt;fecha nacimiento&lt;br&gt;país origen" style="align=left;strokeColor=none;fillColor=none;spacingLeft=4;fontSize=12;verticalAlign=top;resizable=0;rotatable=0;part=1;html=1;" vertex="1" parent="9zpTmdCMwln6hK2Ll3PY-3">
          <mxGeometry y="50" width="160" height="90" as="geometry" />
        </mxCell>
        <mxCell id="9zpTmdCMwln6hK2Ll3PY-5" value="ACTOR/ACTRIZ" style="swimlane;childLayout=stackLayout;horizontal=1;startSize=50;horizontalStack=0;rounded=1;fontSize=14;fontStyle=0;strokeWidth=2;resizeParent=0;resizeLast=1;shadow=0;dashed=0;align=center;arcSize=4;whiteSpace=wrap;html=1;" vertex="1" parent="1">
          <mxGeometry x="400" y="40" width="160" height="140" as="geometry" />
        </mxCell>
        <mxCell id="9zpTmdCMwln6hK2Ll3PY-6" value="&lt;u&gt;Nombre&lt;/u&gt;&lt;br&gt;ape1&lt;br&gt;N ape2&lt;br&gt;nacionalidad" style="align=left;strokeColor=none;fillColor=none;spacingLeft=4;fontSize=12;verticalAlign=top;resizable=0;rotatable=0;part=1;html=1;" vertex="1" parent="9zpTmdCMwln6hK2Ll3PY-5">
          <mxGeometry y="50" width="160" height="90" as="geometry" />
        </mxCell>
        <mxCell id="9zpTmdCMwln6hK2Ll3PY-8" value="Pelicula" style="rounded=1;arcSize=10;whiteSpace=wrap;html=1;align=center;" vertex="1" parent="1">
          <mxGeometry x="160" y="400" width="220" height="120" as="geometry" />
        </mxCell>
        <mxCell id="9zpTmdCMwln6hK2Ll3PY-10" value="Titulo" style="ellipse;whiteSpace=wrap;html=1;align=center;fontStyle=4;" vertex="1" parent="1">
          <mxGeometry x="30" y="470" width="100" height="40" as="geometry" />
        </mxCell>
        <mxCell id="9zpTmdCMwln6hK2Ll3PY-11" value="observaciones propias" style="ellipse;whiteSpace=wrap;html=1;align=center;" vertex="1" parent="1">
          <mxGeometry x="30" y="330" width="100" height="40" as="geometry" />
        </mxCell>
        <mxCell id="9zpTmdCMwln6hK2Ll3PY-12" value="ape1" style="ellipse;whiteSpace=wrap;html=1;align=center;" vertex="1" parent="1">
          <mxGeometry x="667" y="280" width="100" height="40" as="geometry" />
        </mxCell>
        <mxCell id="9zpTmdCMwln6hK2Ll3PY-13" value="N ape2" style="ellipse;whiteSpace=wrap;html=1;align=center;" vertex="1" parent="1">
          <mxGeometry x="660" y="520" width="100" height="40" as="geometry" />
        </mxCell>
        <mxCell id="9zpTmdCMwln6hK2Ll3PY-14" value="ape1" style="ellipse;whiteSpace=wrap;html=1;align=center;" vertex="1" parent="1">
          <mxGeometry x="440" y="660" width="100" height="40" as="geometry" />
        </mxCell>
        <mxCell id="9zpTmdCMwln6hK2Ll3PY-16" value="N resumen" style="ellipse;whiteSpace=wrap;html=1;align=center;" vertex="1" parent="1">
          <mxGeometry x="250" y="310" width="100" height="40" as="geometry" />
        </mxCell>
        <mxCell id="9zpTmdCMwln6hK2Ll3PY-17" value="N restricción de edad" style="ellipse;whiteSpace=wrap;html=1;align=center;" vertex="1" parent="1">
          <mxGeometry x="250" y="570" width="100" height="40" as="geometry" />
        </mxCell>
        <mxCell id="9zpTmdCMwln6hK2Ll3PY-18" value="B/W o color" style="ellipse;whiteSpace=wrap;html=1;align=center;" vertex="1" parent="1">
          <mxGeometry x="140" y="310" width="100" height="40" as="geometry" />
        </mxCell>
        <mxCell id="9zpTmdCMwln6hK2Ll3PY-19" value="idioma" style="ellipse;whiteSpace=wrap;html=1;align=center;" vertex="1" parent="1">
          <mxGeometry x="140" y="570" width="100" height="40" as="geometry" />
        </mxCell>
        <mxCell id="9zpTmdCMwln6hK2Ll3PY-20" value="nacionalidad" style="ellipse;whiteSpace=wrap;html=1;align=center;" vertex="1" parent="1">
          <mxGeometry x="30" y="540" width="100" height="40" as="geometry" />
        </mxCell>
        <mxCell id="9zpTmdCMwln6hK2Ll3PY-21" value="año" style="ellipse;whiteSpace=wrap;html=1;align=center;" vertex="1" parent="1">
          <mxGeometry x="30" y="400" width="100" height="40" as="geometry" />
        </mxCell>
        <mxCell id="9zpTmdCMwln6hK2Ll3PY-22" value="PERSONAJE" style="swimlane;childLayout=stackLayout;horizontal=1;startSize=50;horizontalStack=0;rounded=1;fontSize=14;fontStyle=0;strokeWidth=2;resizeParent=0;resizeLast=1;shadow=0;dashed=0;align=center;arcSize=4;whiteSpace=wrap;html=1;" vertex="1" parent="1">
          <mxGeometry x="580" y="40" width="160" height="120" as="geometry" />
        </mxCell>
        <mxCell id="9zpTmdCMwln6hK2Ll3PY-23" value="&lt;u&gt;Nombre&lt;/u&gt;&lt;br&gt;" style="align=left;strokeColor=none;fillColor=none;spacingLeft=4;fontSize=12;verticalAlign=top;resizable=0;rotatable=0;part=1;html=1;" vertex="1" parent="9zpTmdCMwln6hK2Ll3PY-22">
          <mxGeometry y="50" width="160" height="70" as="geometry" />
        </mxCell>
        <mxCell id="9zpTmdCMwln6hK2Ll3PY-26" value="Director" style="rounded=1;arcSize=10;whiteSpace=wrap;html=1;align=center;" vertex="1" parent="1">
          <mxGeometry x="540" y="580" width="100" height="40" as="geometry" />
        </mxCell>
        <mxCell id="9zpTmdCMwln6hK2Ll3PY-27" value="" style="endArrow=none;html=1;rounded=0;" edge="1" parent="1" source="9zpTmdCMwln6hK2Ll3PY-8" target="9zpTmdCMwln6hK2Ll3PY-16">
          <mxGeometry relative="1" as="geometry">
            <mxPoint x="300" y="330" as="sourcePoint" />
            <mxPoint x="460" y="330" as="targetPoint" />
          </mxGeometry>
        </mxCell>
        <mxCell id="9zpTmdCMwln6hK2Ll3PY-28" value="" style="endArrow=none;html=1;rounded=0;" edge="1" parent="1" source="9zpTmdCMwln6hK2Ll3PY-8" target="9zpTmdCMwln6hK2Ll3PY-18">
          <mxGeometry relative="1" as="geometry">
            <mxPoint x="294" y="410" as="sourcePoint" />
            <mxPoint x="305" y="360" as="targetPoint" />
          </mxGeometry>
        </mxCell>
        <mxCell id="9zpTmdCMwln6hK2Ll3PY-29" value="" style="endArrow=none;html=1;rounded=0;" edge="1" parent="1" source="9zpTmdCMwln6hK2Ll3PY-8" target="9zpTmdCMwln6hK2Ll3PY-11">
          <mxGeometry relative="1" as="geometry">
            <mxPoint x="304" y="420" as="sourcePoint" />
            <mxPoint x="315" y="370" as="targetPoint" />
          </mxGeometry>
        </mxCell>
        <mxCell id="9zpTmdCMwln6hK2Ll3PY-30" value="" style="endArrow=none;html=1;rounded=0;" edge="1" parent="1" source="9zpTmdCMwln6hK2Ll3PY-21" target="9zpTmdCMwln6hK2Ll3PY-8">
          <mxGeometry relative="1" as="geometry">
            <mxPoint x="314" y="430" as="sourcePoint" />
            <mxPoint x="325" y="380" as="targetPoint" />
          </mxGeometry>
        </mxCell>
        <mxCell id="9zpTmdCMwln6hK2Ll3PY-31" value="" style="endArrow=none;html=1;rounded=0;" edge="1" parent="1" source="9zpTmdCMwln6hK2Ll3PY-10" target="9zpTmdCMwln6hK2Ll3PY-8">
          <mxGeometry relative="1" as="geometry">
            <mxPoint x="324" y="440" as="sourcePoint" />
            <mxPoint x="335" y="390" as="targetPoint" />
          </mxGeometry>
        </mxCell>
        <mxCell id="9zpTmdCMwln6hK2Ll3PY-32" value="" style="endArrow=none;html=1;rounded=0;" edge="1" parent="1" source="9zpTmdCMwln6hK2Ll3PY-20" target="9zpTmdCMwln6hK2Ll3PY-8">
          <mxGeometry relative="1" as="geometry">
            <mxPoint x="334" y="450" as="sourcePoint" />
            <mxPoint x="345" y="400" as="targetPoint" />
          </mxGeometry>
        </mxCell>
        <mxCell id="9zpTmdCMwln6hK2Ll3PY-33" value="" style="endArrow=none;html=1;rounded=0;" edge="1" parent="1" source="9zpTmdCMwln6hK2Ll3PY-19" target="9zpTmdCMwln6hK2Ll3PY-8">
          <mxGeometry relative="1" as="geometry">
            <mxPoint x="344" y="460" as="sourcePoint" />
            <mxPoint x="355" y="410" as="targetPoint" />
          </mxGeometry>
        </mxCell>
        <mxCell id="9zpTmdCMwln6hK2Ll3PY-34" value="" style="endArrow=none;html=1;rounded=0;" edge="1" parent="1" source="9zpTmdCMwln6hK2Ll3PY-17" target="9zpTmdCMwln6hK2Ll3PY-8">
          <mxGeometry relative="1" as="geometry">
            <mxPoint x="354" y="470" as="sourcePoint" />
            <mxPoint x="365" y="420" as="targetPoint" />
          </mxGeometry>
        </mxCell>
        <mxCell id="9zpTmdCMwln6hK2Ll3PY-35" value="DIRIGIDA&lt;br&gt;NxM" style="shape=rhombus;perimeter=rhombusPerimeter;whiteSpace=wrap;html=1;align=center;" vertex="1" parent="1">
          <mxGeometry x="410" y="520" width="120" height="60" as="geometry" />
        </mxCell>
        <mxCell id="9zpTmdCMwln6hK2Ll3PY-36" value="" style="endArrow=none;html=1;rounded=0;" edge="1" parent="1" source="9zpTmdCMwln6hK2Ll3PY-8" target="9zpTmdCMwln6hK2Ll3PY-35">
          <mxGeometry relative="1" as="geometry">
            <mxPoint x="300" y="330" as="sourcePoint" />
            <mxPoint x="460" y="330" as="targetPoint" />
          </mxGeometry>
        </mxCell>
        <mxCell id="9zpTmdCMwln6hK2Ll3PY-37" value="" style="endArrow=none;html=1;rounded=0;" edge="1" parent="1" source="9zpTmdCMwln6hK2Ll3PY-35" target="9zpTmdCMwln6hK2Ll3PY-26">
          <mxGeometry relative="1" as="geometry">
            <mxPoint x="390" y="520" as="sourcePoint" />
            <mxPoint x="448" y="546" as="targetPoint" />
          </mxGeometry>
        </mxCell>
        <mxCell id="9zpTmdCMwln6hK2Ll3PY-38" value="Nombre" style="ellipse;whiteSpace=wrap;html=1;align=center;fontStyle=4;" vertex="1" parent="1">
          <mxGeometry x="660" y="580" width="100" height="40" as="geometry" />
        </mxCell>
        <mxCell id="9zpTmdCMwln6hK2Ll3PY-39" value="fecha nacimiento" style="ellipse;whiteSpace=wrap;html=1;align=center;" vertex="1" parent="1">
          <mxGeometry x="550" y="660" width="100" height="40" as="geometry" />
        </mxCell>
        <mxCell id="9zpTmdCMwln6hK2Ll3PY-40" value="país origen" style="ellipse;whiteSpace=wrap;html=1;align=center;" vertex="1" parent="1">
          <mxGeometry x="660" y="640" width="100" height="40" as="geometry" />
        </mxCell>
        <mxCell id="9zpTmdCMwln6hK2Ll3PY-41" value="" style="endArrow=none;html=1;rounded=0;" edge="1" parent="1" source="9zpTmdCMwln6hK2Ll3PY-14" target="9zpTmdCMwln6hK2Ll3PY-26">
          <mxGeometry relative="1" as="geometry">
            <mxPoint x="300" y="330" as="sourcePoint" />
            <mxPoint x="460" y="330" as="targetPoint" />
          </mxGeometry>
        </mxCell>
        <mxCell id="9zpTmdCMwln6hK2Ll3PY-42" value="" style="endArrow=none;html=1;rounded=0;" edge="1" parent="1" source="9zpTmdCMwln6hK2Ll3PY-39" target="9zpTmdCMwln6hK2Ll3PY-26">
          <mxGeometry relative="1" as="geometry">
            <mxPoint x="522" y="672" as="sourcePoint" />
            <mxPoint x="575" y="630" as="targetPoint" />
          </mxGeometry>
        </mxCell>
        <mxCell id="9zpTmdCMwln6hK2Ll3PY-43" value="" style="endArrow=none;html=1;rounded=0;" edge="1" parent="1" source="9zpTmdCMwln6hK2Ll3PY-40" target="9zpTmdCMwln6hK2Ll3PY-26">
          <mxGeometry relative="1" as="geometry">
            <mxPoint x="532" y="682" as="sourcePoint" />
            <mxPoint x="585" y="640" as="targetPoint" />
          </mxGeometry>
        </mxCell>
        <mxCell id="9zpTmdCMwln6hK2Ll3PY-44" value="" style="endArrow=none;html=1;rounded=0;" edge="1" parent="1" source="9zpTmdCMwln6hK2Ll3PY-38" target="9zpTmdCMwln6hK2Ll3PY-26">
          <mxGeometry relative="1" as="geometry">
            <mxPoint x="542" y="692" as="sourcePoint" />
            <mxPoint x="595" y="650" as="targetPoint" />
          </mxGeometry>
        </mxCell>
        <mxCell id="9zpTmdCMwln6hK2Ll3PY-45" value="" style="endArrow=none;html=1;rounded=0;" edge="1" parent="1" source="9zpTmdCMwln6hK2Ll3PY-13" target="9zpTmdCMwln6hK2Ll3PY-26">
          <mxGeometry relative="1" as="geometry">
            <mxPoint x="552" y="702" as="sourcePoint" />
            <mxPoint x="605" y="660" as="targetPoint" />
          </mxGeometry>
        </mxCell>
        <mxCell id="9zpTmdCMwln6hK2Ll3PY-46" value="(1,n)" style="text;html=1;align=center;verticalAlign=middle;resizable=0;points=[];autosize=1;strokeColor=none;fillColor=none;" vertex="1" parent="1">
          <mxGeometry x="400" y="500" width="50" height="30" as="geometry" />
        </mxCell>
        <mxCell id="9zpTmdCMwln6hK2Ll3PY-47" value="(1,n)" style="text;html=1;align=center;verticalAlign=middle;resizable=0;points=[];autosize=1;strokeColor=none;fillColor=none;" vertex="1" parent="1">
          <mxGeometry x="510" y="550" width="50" height="30" as="geometry" />
        </mxCell>
        <mxCell id="9zpTmdCMwln6hK2Ll3PY-50" value="ACTOR/ACTRIZ" style="rounded=1;arcSize=10;whiteSpace=wrap;html=1;align=center;" vertex="1" parent="1">
          <mxGeometry x="620" y="350" width="100" height="40" as="geometry" />
        </mxCell>
        <mxCell id="9zpTmdCMwln6hK2Ll3PY-52" value="N ape2" style="ellipse;whiteSpace=wrap;html=1;align=center;" vertex="1" parent="1">
          <mxGeometry x="550" y="420" width="100" height="40" as="geometry" />
        </mxCell>
        <mxCell id="9zpTmdCMwln6hK2Ll3PY-53" value="Personaje" style="ellipse;whiteSpace=wrap;html=1;align=center;fontStyle=4;" vertex="1" parent="1">
          <mxGeometry x="420" y="260" width="100" height="40" as="geometry" />
        </mxCell>
        <mxCell id="9zpTmdCMwln6hK2Ll3PY-54" value="" style="endArrow=none;html=1;rounded=0;" edge="1" parent="1" source="9zpTmdCMwln6hK2Ll3PY-53" target="9zpTmdCMwln6hK2Ll3PY-64">
          <mxGeometry relative="1" as="geometry">
            <mxPoint x="360" y="330" as="sourcePoint" />
            <mxPoint x="487.5" y="350" as="targetPoint" />
          </mxGeometry>
        </mxCell>
        <mxCell id="9zpTmdCMwln6hK2Ll3PY-55" value="" style="endArrow=none;html=1;rounded=0;" edge="1" parent="1" source="9zpTmdCMwln6hK2Ll3PY-8" target="9zpTmdCMwln6hK2Ll3PY-64">
          <mxGeometry relative="1" as="geometry">
            <mxPoint x="472" y="319" as="sourcePoint" />
            <mxPoint x="450" y="389.5652173913045" as="targetPoint" />
          </mxGeometry>
        </mxCell>
        <mxCell id="9zpTmdCMwln6hK2Ll3PY-57" value="" style="endArrow=none;html=1;rounded=0;" edge="1" parent="1" source="9zpTmdCMwln6hK2Ll3PY-64" target="9zpTmdCMwln6hK2Ll3PY-50">
          <mxGeometry relative="1" as="geometry">
            <mxPoint x="550" y="370" as="sourcePoint" />
            <mxPoint x="700" y="370" as="targetPoint" />
          </mxGeometry>
        </mxCell>
        <mxCell id="9zpTmdCMwln6hK2Ll3PY-58" value="nacionalidad" style="ellipse;whiteSpace=wrap;html=1;align=center;" vertex="1" parent="1">
          <mxGeometry x="667" y="420" width="100" height="40" as="geometry" />
        </mxCell>
        <mxCell id="9zpTmdCMwln6hK2Ll3PY-59" value="Nombre" style="ellipse;whiteSpace=wrap;html=1;align=center;fontStyle=4;" vertex="1" parent="1">
          <mxGeometry x="550" y="280" width="100" height="40" as="geometry" />
        </mxCell>
        <mxCell id="9zpTmdCMwln6hK2Ll3PY-60" value="" style="endArrow=none;html=1;rounded=0;" edge="1" parent="1" source="9zpTmdCMwln6hK2Ll3PY-59" target="9zpTmdCMwln6hK2Ll3PY-50">
          <mxGeometry relative="1" as="geometry">
            <mxPoint x="510" y="370" as="sourcePoint" />
            <mxPoint x="670" y="370" as="targetPoint" />
          </mxGeometry>
        </mxCell>
        <mxCell id="9zpTmdCMwln6hK2Ll3PY-61" value="" style="endArrow=none;html=1;rounded=0;" edge="1" parent="1" source="9zpTmdCMwln6hK2Ll3PY-12" target="9zpTmdCMwln6hK2Ll3PY-50">
          <mxGeometry relative="1" as="geometry">
            <mxPoint x="629" y="329" as="sourcePoint" />
            <mxPoint x="660" y="360" as="targetPoint" />
          </mxGeometry>
        </mxCell>
        <mxCell id="9zpTmdCMwln6hK2Ll3PY-62" value="" style="endArrow=none;html=1;rounded=0;exitX=0.64;exitY=0.175;exitDx=0;exitDy=0;exitPerimeter=0;" edge="1" parent="1" source="9zpTmdCMwln6hK2Ll3PY-52" target="9zpTmdCMwln6hK2Ll3PY-50">
          <mxGeometry relative="1" as="geometry">
            <mxPoint x="639" y="339" as="sourcePoint" />
            <mxPoint x="670" y="370" as="targetPoint" />
          </mxGeometry>
        </mxCell>
        <mxCell id="9zpTmdCMwln6hK2Ll3PY-63" value="" style="endArrow=none;html=1;rounded=0;" edge="1" parent="1" source="9zpTmdCMwln6hK2Ll3PY-50" target="9zpTmdCMwln6hK2Ll3PY-58">
          <mxGeometry relative="1" as="geometry">
            <mxPoint x="649" y="349" as="sourcePoint" />
            <mxPoint x="680" y="380" as="targetPoint" />
          </mxGeometry>
        </mxCell>
        <mxCell id="9zpTmdCMwln6hK2Ll3PY-64" value="PARTICIPAN&lt;br&gt;NxN" style="shape=rhombus;perimeter=rhombusPerimeter;whiteSpace=wrap;html=1;align=center;" vertex="1" parent="1">
          <mxGeometry x="410" y="340" width="120" height="60" as="geometry" />
        </mxCell>
        <mxCell id="9zpTmdCMwln6hK2Ll3PY-65" value="(1,n)" style="text;html=1;align=center;verticalAlign=middle;resizable=0;points=[];autosize=1;strokeColor=none;fillColor=none;" vertex="1" parent="1">
          <mxGeometry x="400" y="390" width="50" height="30" as="geometry" />
        </mxCell>
        <mxCell id="9zpTmdCMwln6hK2Ll3PY-66" value="(1,n)" style="text;html=1;align=center;verticalAlign=middle;resizable=0;points=[];autosize=1;strokeColor=none;fillColor=none;" vertex="1" parent="1">
          <mxGeometry x="540" y="350" width="50" height="30" as="geometry" />
        </mxCell>
      </root>
    </mxGraphModel>
  </diagram>
</mxfile>
